<svg width="24" height="23" viewBox="0 0 24 23" fill="none" xmlns="http://www.w3.org/2000/svg">
<path d="M23.9025 9.25824C24.0754 8.4692 23.9832 7.72336 23.894 7.00197C23.8179 6.38597 23.746 5.80423 23.8547 5.26406C24.1123 3.98356 23.3134 2.57804 22.5886 1.4966C21.78 0.290218 20.905 0.119085 19.7571 0.00899269C19.695 0.00306569 19.6316 0 19.5687 0C18.7984 0 18.1549 0.44105 17.8092 0.677994C17.7195 0.739444 17.6268 0.803006 17.5996 0.808592C17.5566 0.817381 17.4559 0.818743 17.3286 0.820515C16.9864 0.825147 16.4139 0.832982 15.7321 0.982383C15.0678 1.12804 14.5355 1.47419 14.5454 1.75405C14.5492 1.86006 14.625 1.99665 14.9648 2.04522C15.6769 2.14707 16.3065 2.34443 16.8124 2.50296C16.9124 2.5343 17.0063 2.56373 17.0933 2.58996C17.6407 2.75524 18.1463 2.98108 18.3194 3.91747C18.4399 4.56863 17.3455 5.31577 16.3801 5.97503C15.9797 6.24842 15.6015 6.50669 15.2968 6.75991C14.2345 7.64303 12.2088 9.43285 11.5599 10.0618C10.9448 10.658 5.77205 14.2865 4.38159 14.9805C2.9607 15.6896 1.5759 16.8012 1.2289 17.5111C1.15112 17.6703 1.13448 17.7711 1.17483 17.8379C1.19247 17.8671 1.2289 17.9019 1.30235 17.9019C1.38978 17.9019 1.50951 17.8503 1.61279 17.8003C1.61292 17.8131 1.61525 17.8262 1.62071 17.8397C1.65154 17.9159 1.7509 17.9256 1.834 17.9256C2.06114 17.9256 2.53459 17.8302 3.11199 17.6687C2.90463 17.8256 2.49317 18.0955 2.1188 18.3412C0.638914 19.3127 -0.0182597 19.7845 0.000385414 20.0126C0.0106402 20.139 0.0922792 20.2896 0.422897 20.2896C0.625863 20.2896 0.873177 20.2363 1.07195 20.1934C1.17509 20.1712 1.26446 20.1519 1.32619 20.1446C1.30368 20.1929 1.24595 20.2759 1.20499 20.3349C1.07235 20.5258 0.935172 20.7232 1.03286 20.8482C1.06216 20.8857 1.11203 20.904 1.18515 20.904C1.4039 20.904 1.87109 20.738 2.3229 20.5774C2.64546 20.4627 2.95011 20.3545 3.13423 20.3168C3.41537 20.2593 4.7782 19.5372 6.09608 18.8389C7.07934 18.318 8.19378 17.7275 8.31371 17.714C8.54724 17.714 10.4339 17.5732 11.624 17.2253C11.8892 17.1478 12.1725 17.1085 12.4661 17.1085C13.1799 17.1085 13.8689 17.3355 14.4592 17.561C14.4556 17.708 14.452 17.8882 14.4482 18.1093C14.4382 18.716 14.4337 19.3443 14.4352 19.5103C14.4371 19.7422 14.8651 20.1515 15.4696 20.7042C15.7182 20.9316 16.0234 21.2108 16.0795 21.3112C15.9782 21.3757 15.8229 21.3776 15.6303 21.38C15.2939 21.3841 14.8332 21.3898 14.3554 21.7626C14.0771 21.9797 13.8931 22.2901 13.8514 22.4413C13.8475 22.4553 13.8358 22.4977 13.8615 22.5325C13.8758 22.5518 13.8978 22.5629 13.9218 22.5629C13.9419 22.5629 13.9621 22.5553 13.9838 22.5396L14.0328 22.5037C14.1887 22.3895 14.5537 22.1219 14.7497 22.0456C15.0147 21.9424 15.2093 21.9004 15.4218 21.9004C15.7006 21.9004 16.0303 21.9737 16.5409 22.1091C16.8536 22.1919 17.1205 22.2322 17.357 22.2322C17.6646 22.2322 17.8879 22.1656 18.1243 22.0951C18.3994 22.0131 18.6837 21.9283 19.1487 21.9283C19.235 21.9283 19.3261 21.9313 19.4195 21.9373C19.9288 21.9699 20.3852 22.2412 20.6045 22.3716C20.6989 22.4278 20.7275 22.4447 20.7584 22.4447L20.8054 22.4428L20.8231 22.4026C20.8462 22.3501 20.8171 22.3167 20.6778 22.1561C20.4436 21.8864 20.2246 21.7214 20.0128 21.6147C20.1422 21.5889 20.2618 21.5536 20.3846 21.517C20.6597 21.435 20.9441 21.3501 21.4089 21.3501C21.4953 21.3501 21.5864 21.3531 21.6797 21.3591C22.1891 21.3918 22.6455 21.6631 22.8648 21.7934C22.9593 21.8496 22.9878 21.8665 23.0187 21.8665L23.0657 21.8646L23.0834 21.8244C23.1065 21.7719 23.0775 21.7385 22.9381 21.5779C22.4424 21.0068 22.0132 20.9016 21.5809 20.837C21.411 20.8117 21.2827 20.7534 21.2687 20.6952C21.2572 20.6476 21.3202 20.567 21.4374 20.4796C21.6453 20.3247 21.8544 20.2461 22.0589 20.2461C22.4212 20.2461 22.6466 20.4895 22.6711 20.582C22.6822 20.624 22.7146 20.6388 22.7391 20.6388C22.7641 20.6388 22.797 20.6233 22.8077 20.5797C22.8277 20.4982 22.8037 20.1412 22.5089 19.9796C22.3617 19.8989 22.1338 19.8545 21.8673 19.8545C21.2376 19.8545 20.5525 20.0811 19.988 20.4684C19.8756 20.4451 19.7468 20.4325 19.607 20.4325C19.5682 20.4325 19.5291 20.4338 19.4899 20.4355C19.0078 20.0412 18.1593 19.1234 18.1104 18.8112C18.0782 18.6054 18.0595 17.9551 18.0595 17.3263C18.0595 17.3239 18.0595 17.3216 18.0595 17.3192C18.459 17.1159 18.8646 16.8764 19.335 16.5933C21.6896 15.1765 23.5833 10.7149 23.9025 9.25824ZM16.7018 18.0038C16.6965 18.4349 16.6944 18.8094 16.6954 18.9323C16.6974 19.1641 17.1254 19.5733 17.7298 20.1261C17.9648 20.341 18.25 20.602 18.328 20.7148C18.2751 20.7378 18.2227 20.762 18.1707 20.7876C18.0903 20.7991 17.9963 20.8006 17.8906 20.8019C17.6728 20.8046 17.4029 20.8085 17.11 20.9117C16.6204 20.479 15.9036 19.6771 15.8585 19.3895C15.8342 19.2336 15.8252 18.8222 15.8202 18.3584C16.0146 18.2902 16.3042 18.1816 16.7018 18.0038Z" fill="white"/>
</svg>
